<svg width="50" height="50" viewBox="0 0 50 50" fill="none" xmlns="http://www.w3.org/2000/svg">
<path d="M18.75 13.8958H31.25" stroke="#08A652" stroke-width="1.5" stroke-linecap="round" stroke-linejoin="round"/>
<path d="M14.583 22.2292H35.4163" stroke="#08A652" stroke-width="1.5" stroke-linecap="round" stroke-linejoin="round"/>
<path d="M29.0508 31.626C31.2882 33.8634 31.2882 37.4909 29.0508 39.7283C26.8134 41.9657 23.1859 41.9657 20.9485 39.7283C18.7112 37.4909 18.7112 33.8634 20.9485 31.626C23.1859 29.3887 26.8134 29.3887 29.0508 31.626" stroke="#08A652" stroke-width="1.4815" stroke-linecap="round" stroke-linejoin="round"/>
<path d="M30.7292 35.6771L36.4583 41.4062L30.9896 46.875L25.5 41.3854" stroke="#08A652" stroke-width="1.4815" stroke-linecap="round" stroke-linejoin="round"/>
<path d="M24.5003 41.3854L19.0107 46.875L13.542 41.4062L19.2712 35.6771" stroke="#08A652" stroke-width="1.4815" stroke-linecap="round" stroke-linejoin="round"/>
<path d="M13.5417 41.4062H10.4167C8.11458 41.4062 6.25 39.5416 6.25 37.2396V9.37498C6.25 7.0729 8.11458 5.20831 10.4167 5.20831H39.5833C41.8854 5.20831 43.75 7.0729 43.75 9.37498V37.2396C43.75 39.5416 41.8854 41.4062 39.5833 41.4062H36.4583" stroke="#08A652" stroke-width="1.4815" stroke-linecap="round" stroke-linejoin="round"/>
</svg>
