<svg width="50" height="49" viewBox="0 0 50 49" fill="none" xmlns="http://www.w3.org/2000/svg">
<path d="M43.75 20.8333V10.4167C43.75 8.11458 41.8854 6.25 39.5833 6.25H10.4167C8.11458 6.25 6.25 8.11458 6.25 10.4167V37.5C6.25 39.8021 8.11458 41.6667 10.4167 41.6667H18.75" stroke="#08A652" stroke-width="1.5" stroke-linecap="round" stroke-linejoin="round"/>
<path d="M43.75 43.75L39.625 39.625" stroke="#08A652" stroke-width="1.5" stroke-linecap="round" stroke-linejoin="round"/>
<path d="M32.9873 23.6125C38.1644 23.6125 42.3623 27.8104 42.3623 32.9875C42.3623 38.1646 38.1644 42.3625 32.9873 42.3625C27.8102 42.3625 23.6123 38.1646 23.6123 32.9875C23.6123 27.8104 27.8102 23.6125 32.9873 23.6125Z" stroke="#08A652" stroke-width="1.5" stroke-linecap="round" stroke-linejoin="round"/>
<path d="M36.6336 31.1646L32.0753 35.7229L29.3398 32.9875" stroke="#08A652" stroke-width="1.5" stroke-linecap="round" stroke-linejoin="round"/>
</svg>
