<svg width="50" height="50" viewBox="0 0 50 50" fill="none" xmlns="http://www.w3.org/2000/svg">
<path d="M18.75 43.75H10.4167V43.75C8.11548 43.75 6.25 41.8845 6.25 39.5833V10.4167V10.4167C6.25 8.11548 8.11548 6.25 10.4167 6.25H35.4167V6.25C37.7179 6.25 39.5833 8.11548 39.5833 10.4167V16.6667" stroke="#08A652" stroke-width="1.5" stroke-linecap="round" stroke-linejoin="round"/>
<path d="M25 43.75L30.4667 43.075V43.075C30.8513 43.0274 31.209 42.8529 31.4833 42.5791L44.7292 29.3333V29.3333C46.1963 27.8724 46.2019 25.499 44.7417 24.0312L44.7292 24.0208V24.0208C43.2683 22.5537 40.8949 22.5481 39.4271 24.0083V24.0208L26.3021 37.1458V37.1458C26.0351 37.411 25.8624 37.7564 25.8104 38.1291L25 43.75Z" stroke="#08A652" stroke-width="1.5" stroke-linecap="round" stroke-linejoin="round"/>
<path d="M16.667 35.4167V35.4167C14.9411 35.4167 13.542 34.0176 13.542 32.2917V32.2917V32.2917C13.542 30.5658 14.9411 29.1667 16.667 29.1667V29.1667H16.667C18.3929 29.1667 19.792 30.5658 19.792 32.2917V32.2917C19.792 34.0176 18.3929 35.4167 16.667 35.4167C16.667 35.4167 16.667 35.4167 16.667 35.4167H16.667Z" stroke="#08A652" stroke-width="1.5" stroke-linecap="round" stroke-linejoin="round"/>
<path d="M13.542 14.5833H30.2087" stroke="#08A652" stroke-width="1.5" stroke-linecap="round" stroke-linejoin="round"/>
<path d="M13.542 21.875H21.8753" stroke="#08A652" stroke-width="1.5" stroke-linecap="round" stroke-linejoin="round"/>
</svg>
