<svg width="49" height="50" viewBox="0 0 49 50" fill="none" xmlns="http://www.w3.org/2000/svg">
<path d="M18.6042 33.3333L17.5625 41.6666" stroke="#08A652" stroke-width="1.5" stroke-linecap="round" stroke-linejoin="round"/>
<path d="M42.5583 18.75V11.3083C42.5583 8.51469 40.2936 6.25 37.5 6.25H11.3083V6.25C8.51469 6.25 6.25 8.51469 6.25 11.3083V11.3083V28.275V28.275C6.25 31.0686 8.51469 33.3333 11.3083 33.3333H27.0833" stroke="#08A652" stroke-width="1.5" stroke-linecap="round" stroke-linejoin="round"/>
<path d="M44.7913 43.75H31.2497V43.75C30.6744 43.75 30.208 43.2836 30.208 42.7083V41.8625V41.8625C30.2149 39.456 32.164 37.5069 34.5705 37.5H41.4705V37.5C43.877 37.5069 45.8262 39.456 45.833 41.8625V42.7083V42.7083C45.833 43.2836 45.3666 43.75 44.7913 43.75V43.75V43.75Z" stroke="#08A652" stroke-width="1.5" stroke-linecap="round" stroke-linejoin="round"/>
<path d="M38.0206 32.2917V32.2917C35.7195 32.2871 33.8577 30.4178 33.8623 28.1167C33.8669 25.8155 35.7361 23.9537 38.0373 23.9583C40.3385 23.9629 42.2003 25.8321 42.1956 28.1333C42.1911 30.4281 40.3319 32.2871 38.0372 32.2917H38.0206Z" stroke="#08A652" stroke-width="1.5" stroke-linecap="round" stroke-linejoin="round"/>
<path d="M14.4375 41.6667H22.9167" stroke="#08A652" stroke-width="1.5" stroke-linecap="round" stroke-linejoin="round"/>
</svg>
