<svg width="29" height="30" viewBox="0 0 29 30" fill="none" xmlns="http://www.w3.org/2000/svg">
<path d="M4.93453 25.6848L8.23393 24.9135C13.549 28.1391 20.6518 26.5512 24.0358 21.1803C31.0813 9.32699 16.0039 -2.62561 6.02593 6.85019C2.28523 10.4736 1.55773 16.5783 4.30153 20.991L3.52813 24.2826C3.31093 25.092 4.12033 25.9053 4.93453 25.6848Z" fill="#4477E8"/>
<path d="M10.5397 27.3777C9.88211 27.1794 9.24161 26.9289 8.62421 26.6283C7.94801 26.2581 5.67641 25.9341 5.87561 27.2055C5.95931 27.5637 6.31751 27.7866 6.67571 27.7032C6.95471 27.6504 7.38581 27.4719 7.65251 27.6432C8.44841 28.0593 9.28241 28.398 10.1422 28.6548C10.9795 28.8945 11.3695 27.6489 10.5397 27.3777Z" fill="#4477E8"/>
<path d="M2.85478 22.866L3.08998 21.855C3.12808 21.6918 3.10078 21.5217 3.01798 21.3762C2.53738 20.5305 2.15428 19.6323 1.87708 18.7011C1.60918 17.8707 0.361779 18.2559 0.601779 19.0959C0.859479 19.956 1.19878 20.79 1.61368 21.5859C1.78438 21.8502 1.60588 22.2858 1.55368 22.5612C1.37578 23.4219 2.63248 23.7201 2.85478 22.866Z" fill="#4477E8"/>
<path d="M3.8761 26.9766L2.8255 27.2223C2.3443 27.3348 1.9123 26.9031 2.0245 26.4219L2.2723 25.3581C2.4508 24.4974 1.192 24.2025 0.971201 25.0551L0.480102 27.1629C0.310902 27.8817 0.758501 28.6008 1.4749 28.7676C1.6744 28.8141 1.8832 28.8141 2.0848 28.7676L4.1902 28.2837C5.0524 28.0593 4.7428 26.7948 3.8761 26.9766Z" fill="#4477E8"/>
<path d="M12.9334 2.1519C13.8082 2.0631 14.6893 2.0631 15.5641 2.1519C16.4374 2.2122 16.5529 0.927596 15.6832 0.822296C14.7292 0.726296 13.7674 0.725996 12.8134 0.822296C12.4318 0.860696 12.1588 1.2099 12.2167 1.5891C12.2698 1.9362 12.5836 2.1873 12.9334 2.1519Z" fill="#4477E8"/>
<path d="M26.6205 11.2884C26.7219 11.6277 27.0735 11.8257 27.4173 11.7399C27.7893 11.6481 28.0068 11.2626 27.8967 10.8957C27.621 9.97677 27.2532 9.08847 26.7987 8.24397C26.3736 7.47927 25.2189 8.08557 25.6191 8.86737C26.034 9.63837 26.3694 10.4499 26.6205 11.2884Z" fill="#4477E8"/>
<path d="M3.32499 6.94589C3.62199 7.16729 4.03869 7.12259 4.28319 6.84419C4.76289 6.29789 5.54499 5.43839 6.09159 4.99229C6.75849 4.41689 5.92929 3.41549 5.23539 3.95789C4.49349 4.56359 3.81429 5.24279 3.20859 5.98469C2.96709 6.28049 3.01899 6.71789 3.32499 6.94589Z" fill="#4477E8"/>
<path d="M24.2545 6.84091C24.4807 7.11871 24.8881 7.16371 25.1722 6.94591C25.4782 6.71791 25.5301 6.28021 25.2889 5.98471C24.6832 5.24281 24.004 4.56361 23.2621 3.95791C22.5685 3.41041 21.7405 4.42831 22.4131 4.99801C23.0872 5.54911 23.7043 6.16651 24.2545 6.84091Z" fill="#4477E8"/>
<path d="M25.1699 23.0508C24.8825 22.8372 24.4781 22.8855 24.2516 23.1627C23.6993 23.8383 23.0801 24.456 22.4039 25.0074C22.1288 25.2315 22.0811 25.6338 22.2935 25.9182C22.5206 26.2263 22.9595 26.28 23.2562 26.0382C23.9987 25.4331 24.6791 24.7545 25.2866 24.0138C25.5287 23.718 25.4768 23.2791 25.1699 23.0508Z" fill="#4477E8"/>
<path d="M15.5614 27.846C14.6875 27.9345 13.8073 27.9345 12.9334 27.8457C12.0598 27.7851 11.9437 29.0724 12.814 29.1777C13.768 29.2737 14.7301 29.274 15.6841 29.1777C16.0657 29.1393 16.3387 28.7901 16.2808 28.4112C16.2277 28.0626 15.9127 27.8106 15.5614 27.846Z" fill="#4477E8"/>
<path d="M27.4138 18.255C27.0703 18.1701 26.7196 18.3681 26.6185 18.7071C26.3674 19.548 26.0314 20.3604 25.6159 21.1332C25.4479 21.4452 25.5574 21.834 25.8616 22.0158C26.1895 22.2132 26.6155 22.0944 26.797 21.7575C27.2527 20.9112 27.6205 20.0202 27.8953 19.1007C28.0048 18.7332 27.7864 18.3471 27.4138 18.255Z" fill="#4477E8"/>
<path d="M28.4234 13.5645C28.385 13.1835 28.0364 12.9105 27.6578 12.9678C27.308 13.0206 27.0593 13.3377 27.0953 13.6896C27.1844 14.5599 27.1841 15.4389 27.0953 16.3095C27.0308 17.187 28.3163 17.3076 28.4237 16.4346C28.5194 15.4803 28.5194 14.5185 28.4234 13.5645Z" fill="#4477E8"/>
<path d="M20.3794 26.3691C19.6084 26.7843 18.7972 27.1197 17.9584 27.3705C17.1229 27.6465 17.503 28.881 18.3508 28.6467C19.2697 28.371 20.158 28.0032 21.0025 27.5487C21.3394 27.3675 21.4585 26.9418 21.2614 26.6136C21.0796 26.31 20.6914 26.2011 20.3794 26.3691Z" fill="#4477E8"/>
<path d="M1.4019 16.3101C1.3137 15.4392 1.3137 14.5599 1.4019 13.689C1.4652 12.8115 0.1794 12.6921 0.072 13.5648C-0.024 14.5188 -0.024 15.4806 0.072 16.4346C0.1788 17.3061 1.4649 17.1885 1.4019 16.3101Z" fill="#4477E8"/>
<path d="M1.87654 11.2905C2.12734 10.4502 2.46304 9.63839 2.87824 8.86589C3.04594 8.55389 2.93674 8.16539 2.63254 7.9833C2.31484 7.7931 1.90264 7.91279 1.73884 8.24489C1.38574 8.96039 0.82714 10.1427 0.60064 10.8981C0.36664 11.7453 1.60024 12.1272 1.87654 11.2905Z" fill="#4477E8"/>
<path d="M17.9548 2.62712C18.7957 2.87822 19.6081 3.21422 20.3809 3.62972C20.6929 3.79742 21.0814 3.68822 21.2632 3.38432C21.4609 3.05642 21.3418 2.63012 21.0046 2.44892C20.1592 1.99442 19.2685 1.62692 18.3478 1.35122C17.5015 1.11692 17.1172 2.34962 17.9548 2.62712Z" fill="#4477E8"/>
<path d="M8.11514 3.6291C8.88764 3.2136 9.70004 2.8779 10.5403 2.6268C11.3767 2.3505 10.9951 1.1166 10.147 1.3512C9.22814 1.6272 8.33924 1.995 7.49234 2.4495C7.15514 2.6304 7.03604 3.0561 7.23284 3.3843C7.41554 3.6879 7.80344 3.7968 8.11514 3.6291Z" fill="#4477E8"/>
</svg>
