<svg width="27" height="27" viewBox="0 0 27 27" fill="none" xmlns="http://www.w3.org/2000/svg">
<g clip-path="url(#clip0_26_73)">
<path d="M13.498 26.996C20.9528 26.996 26.996 20.9528 26.996 13.498C26.996 6.04327 20.9528 0 13.498 0C6.04327 0 0 6.04327 0 13.498C0 20.9528 6.04327 26.996 13.498 26.996Z" fill="#66BB6A"/>
<path d="M13.498 26.996C20.9528 26.996 26.996 20.9528 26.996 13.498C26.996 6.04327 20.9528 0 13.498 0C6.04327 0 0 6.04327 0 13.498C0 20.9528 6.04327 26.996 13.498 26.996Z" fill="#66BB6A"/>
<path d="M16.8561 8.30529H10.1446C9.03724 8.30529 8.02875 8.75614 7.2971 9.48384C6.57998 10.1962 6.15864 11.1533 6.11757 12.1633C6.0765 13.1733 6.41872 14.1615 7.07562 14.9297C7.70279 15.6708 8.5762 16.1609 9.53556 16.31C9.62151 16.3331 9.69476 16.3895 9.73925 16.4666C9.78373 16.5437 9.79582 16.6353 9.77285 16.7213L9.2429 18.6987L11.4853 16.4563C11.5161 16.4243 11.553 16.3988 11.5937 16.3812C11.6344 16.3635 11.6782 16.3541 11.7226 16.3535H16.8561C17.9634 16.3535 18.968 15.9026 19.6996 15.171C20.0739 14.798 20.3709 14.3549 20.5735 13.8669C20.7761 13.3789 20.8804 12.8558 20.8804 12.3274C20.8804 11.799 20.7761 11.2759 20.5735 10.7879C20.3709 10.2999 20.0739 9.85678 19.6996 9.48384C19.3268 9.10926 18.8837 8.81197 18.3957 8.60905C17.9078 8.40612 17.3845 8.30155 16.8561 8.30133V8.30529ZM9.20335 12.9127L9.78472 12.8574C9.81636 13.0551 9.88754 13.1935 9.99433 13.2884C10.1182 13.3847 10.2728 13.4325 10.4294 13.4229C10.6192 13.4229 10.7655 13.3834 10.8644 13.3043C10.9089 13.2705 10.945 13.2268 10.9697 13.1767C10.9944 13.1266 11.0071 13.0714 11.0068 13.0156C11.0094 12.951 10.9883 12.8877 10.9475 12.8376C10.8888 12.7772 10.815 12.7335 10.7339 12.711C10.576 12.6618 10.4164 12.6183 10.2553 12.5805C10.0117 12.5359 9.7817 12.4357 9.58302 12.2879C9.43734 12.1665 9.34177 11.9954 9.31474 11.8077C9.28772 11.6201 9.33116 11.429 9.43669 11.2714C9.52635 11.1366 9.65451 11.0319 9.80449 10.9709C9.98946 10.8981 10.1871 10.8631 10.3859 10.8681C10.7576 10.8681 11.0384 10.9511 11.2243 11.1133C11.3176 11.1944 11.3925 11.2946 11.4436 11.4072C11.4948 11.5198 11.5212 11.6421 11.5209 11.7658L10.9277 11.7895C10.9 11.6393 10.8446 11.5285 10.7576 11.4652C10.6785 11.398 10.548 11.3624 10.3819 11.3624C10.2382 11.354 10.0956 11.3914 9.97455 11.4692C9.94415 11.4895 9.91946 11.5172 9.90284 11.5497C9.88622 11.5823 9.87823 11.6186 9.87963 11.6551C9.87963 11.7223 9.90732 11.7816 9.96664 11.833C10.1369 11.9336 10.3249 12.0007 10.5203 12.0308C10.7414 12.0769 10.9564 12.1486 11.161 12.2444C11.2956 12.313 11.4091 12.4169 11.4893 12.5449C11.5684 12.6715 11.6079 12.8297 11.6079 13.0156C11.6079 13.1881 11.5563 13.3567 11.4597 13.4998C11.3632 13.6428 11.2261 13.7538 11.0661 13.8184C10.8604 13.8961 10.6413 13.9324 10.4215 13.9252C10.0497 13.9252 9.76099 13.8421 9.55929 13.6681C9.34889 13.4724 9.2215 13.2035 9.20335 12.9167V12.9127ZM12.0983 13.8738V10.9195H12.9921L13.526 12.9365L14.056 10.9195H14.9538V13.8738H14.4001V11.5483L13.8108 13.8738H13.2373L12.656 11.5522V13.8777H12.1023L12.0983 13.8738ZM15.3927 12.9127L15.9741 12.8574C16.0097 13.0551 16.0809 13.1935 16.1877 13.2884C16.3115 13.3847 16.4662 13.4325 16.6227 13.4229C16.8125 13.4229 16.9549 13.3834 17.0538 13.3043C17.099 13.2709 17.1358 13.2274 17.1612 13.1773C17.1867 13.1272 17.2 13.0718 17.2001 13.0156C17.2016 12.9505 17.1791 12.8871 17.1368 12.8376C17.0782 12.7772 17.0044 12.7335 16.9233 12.711C16.7667 12.6619 16.6084 12.6184 16.4487 12.5805C16.2051 12.5359 15.975 12.4357 15.7764 12.2879C15.6307 12.1665 15.5351 11.9954 15.5081 11.8077C15.4811 11.6201 15.5245 11.429 15.63 11.2714C15.7197 11.1366 15.8479 11.0319 15.9978 10.9709C16.1828 10.8981 16.3805 10.8631 16.5792 10.8681C16.951 10.8681 17.2278 10.9511 17.4176 11.1133C17.5103 11.1947 17.5843 11.2952 17.6348 11.4078C17.6853 11.5203 17.7111 11.6424 17.7103 11.7658L17.1171 11.7895C17.0894 11.6393 17.038 11.5285 16.951 11.4652C16.8679 11.398 16.7414 11.3624 16.5753 11.3624C16.4316 11.354 16.289 11.3914 16.1679 11.4692C16.1375 11.4895 16.1128 11.5172 16.0962 11.5497C16.0796 11.5823 16.0716 11.6186 16.073 11.6551C16.073 11.7223 16.1007 11.7816 16.16 11.833C16.3291 11.9331 16.5156 12.0002 16.7097 12.0308C16.9308 12.0769 17.1458 12.1486 17.3504 12.2444C17.485 12.313 17.5985 12.4169 17.6787 12.5449C17.7578 12.6715 17.7973 12.8297 17.7973 13.0156C17.7973 13.1881 17.7457 13.3567 17.6491 13.4998C17.5526 13.6428 17.4155 13.7538 17.2555 13.8184C17.051 13.8956 16.8333 13.9319 16.6148 13.9252C16.2391 13.9252 15.9543 13.8421 15.7526 13.6681C15.5422 13.4724 15.4149 13.2035 15.3967 12.9167L15.3927 12.9127Z" fill="#FFFFFE"/>
</g>
<defs>
<clipPath id="clip0_26_73">
<rect width="27" height="27" fill="white"/>
</clipPath>
</defs>
</svg>
