<svg width="27" height="27" viewBox="0 0 27 27" fill="none" xmlns="http://www.w3.org/2000/svg">
<g clip-path="url(#clip0_26_57)">
<path d="M27 13.5C27 6.04416 20.9558 0 13.5 0C6.04416 0 0 6.04416 0 13.5C0 20.9558 6.04416 27 13.5 27C20.9558 27 27 20.9558 27 13.5Z" fill="#419FD9"/>
<path d="M27 13.5C27 6.04416 20.9558 0 13.5 0C6.04416 0 0 6.04416 0 13.5C0 20.9558 6.04416 27 13.5 27C20.9558 27 27 20.9558 27 13.5Z" fill="url(#paint0_linear_26_57)"/>
<path d="M6.06791 13.2024C9.99377 11.456 12.6116 10.3047 13.9215 9.74838C17.6613 8.16016 18.4385 7.88426 18.945 7.87509C19.0564 7.87318 19.3054 7.90136 19.4668 8.03501C19.6031 8.1479 19.6405 8.30039 19.6585 8.40738C19.6764 8.51443 19.6987 8.75821 19.681 8.94868C19.4783 11.1229 18.6014 16.399 18.1552 18.8342C17.9665 19.8646 17.5948 20.21 17.2349 20.2438C16.4529 20.3173 15.859 19.7162 15.1016 19.2092C13.9163 18.4159 13.2468 17.9221 12.0962 17.148C10.7666 16.2534 11.6286 15.7617 12.3863 14.9581C12.5846 14.7479 16.0303 11.5478 16.097 11.2576C16.1053 11.2212 16.1131 11.0859 16.0343 11.0145C15.9556 10.943 15.8394 10.9674 15.7555 10.9868C15.6367 11.0144 13.7432 12.2922 10.0751 14.8203C9.53764 15.1972 9.05085 15.3807 8.61469 15.3711C8.13386 15.3605 7.20894 15.0935 6.52134 14.8653C5.67799 14.5854 5.00768 14.4374 5.06604 13.9621C5.09645 13.7145 5.43039 13.4612 6.06791 13.2024Z" fill="white"/>
</g>
<defs>
<linearGradient id="paint0_linear_26_57" x1="13.5" y1="0" x2="13.5" y2="26.7998" gradientUnits="userSpaceOnUse">
<stop stop-color="#2AABEE"/>
<stop offset="1" stop-color="#229ED9"/>
</linearGradient>
<clipPath id="clip0_26_57">
<rect width="27" height="27" fill="white"/>
</clipPath>
</defs>
</svg>
